<svg width="254" height="246" viewBox="0 0 254 246" fill="none" xmlns="http://www.w3.org/2000/svg">
<path d="M127.287 52.1521C151.391 52.1521 170.93 40.6431 170.93 26.4462C170.93 12.2492 151.391 0.740234 127.287 0.740234C103.184 0.740234 83.6443 12.2492 83.6443 26.4462C83.6443 40.6431 103.184 52.1521 127.287 52.1521Z" fill="white"/>
<path d="M127.287 245.74C151.391 245.74 170.93 234.231 170.93 220.034C170.93 205.837 151.391 194.328 127.287 194.328C103.184 194.328 83.6443 205.837 83.6443 220.034C83.6443 234.231 103.184 245.74 127.287 245.74Z" fill="white"/>
<path d="M66.4587 87.6934C78.5104 66.5654 78.4355 43.6848 66.2913 36.5881C54.1471 29.4915 34.5324 40.866 22.4807 61.994C10.429 83.1219 10.504 106.003 22.6482 113.099C34.7924 120.196 54.407 108.821 66.4587 87.6934Z" fill="white"/>
<path d="M232.112 184.487C244.164 163.359 244.086 140.477 231.939 133.379C219.792 126.28 200.175 137.653 188.123 158.781C176.071 179.909 176.149 202.791 188.296 209.89C200.443 216.988 220.06 205.615 232.112 184.487Z" fill="white"/>
<path d="M66.2917 209.897C78.439 202.798 78.5165 179.916 66.4648 158.788C54.413 137.66 34.7959 126.287 22.6486 133.386C10.5014 140.484 10.4239 163.366 22.4756 184.494C34.5273 205.622 54.1445 216.995 66.2917 209.897Z" fill="white"/>
<path d="M231.935 113.094C244.083 105.996 244.16 83.1138 232.108 61.9859C220.057 40.8579 200.439 29.4848 188.292 36.5833C176.145 43.6818 176.067 66.5639 188.119 87.6918C200.171 108.82 219.788 120.193 231.935 113.094Z" fill="white"/>
</svg>
